<svg xmlns="http://www.w3.org/2000/svg" xmlns:xlink="http://www.w3.org/1999/xlink" xmlns:svgjs="http://svgjs.dev/svgjs" version="1.1" viewBox="326.29 87.09 346.21 449.33"><g transform="matrix(1,0,0,1,-0.6060606060606233,0.2522267206477409)"><svg xmlns="http://www.w3.org/2000/svg" xmlns:xlink="http://www.w3.org/1999/xlink" viewBox="0 0 396 247" data-background-color="#ffffff" preserveAspectRatio="xMidYMid meet" height="623" width="1000"><g id="tight-bounds" transform="matrix(1,0,0,1,0.2400000000000091,-0.09999999999999432)"><svg viewBox="0 0 395.52 247.2" height="247.2" width="395.52"><g><svg/></g><g><svg viewBox="0 0 395.52 247.2" height="247.2" width="395.52"><g transform="matrix(1,0,0,1,129.12939349905065,51.17153390889749)"><svg viewBox="0 0 137.26121300189865 144.85693218220501" height="144.85693218220501" width="137.26121300189865"><g><svg viewBox="0 0 137.26121300189865 144.85693218220501" height="144.85693218220501" width="137.26121300189865"><g><svg viewBox="0 0 137.26121300189865 144.85693218220501" height="144.85693218220501" width="137.26121300189865"><g><path d="M0 144.857v-144.857h137.261v144.857z" fill="#111111" stroke="transparent" stroke-width="0" rx="0%" data-fill-palette-color="tertiary"/><path d="M2.787 142.07v-139.283h131.688v139.283z" fill="#ffffff" stroke="transparent" stroke-width="0" rx="0%" data-fill-palette-color="quaternary"/><path d="M8.36 136.497v-128.137h120.541v128.137z" fill="#111111" stroke="transparent" stroke-width="0" data-fill-palette-color="tertiary"/></g><g transform="matrix(1,0,0,1,16.7195633328,16.7195633328)"><svg viewBox="0 0 103.82208633629865 111.41780551660503" height="111.41780551660503" width="103.82208633629865"><g><svg viewBox="0 0 103.82208633629865 85.36053814638682" height="85.36053814638682" width="103.82208633629865"><g transform="matrix(1,0,0,1,0,0)"><svg width="103.82208633629865" viewBox="2.8600001335144043 -32.400001525878906 39.39999771118164 32.400001525878906" height="85.36053814638682" data-palette-color="#ffffff"><path d="M22.09 0L2.88-32.4 14.36-32.4 23.05-17.99 29.88-29.71 29.88-13.4 22.09 0ZM42.26 0L31.47 0 31.47-32.4 42.26-32.4 42.26 0ZM12.94 0L2.86 0 2.86-29.39 12.94-12.48 12.94 0Z" opacity="1" transform="matrix(1,0,0,1,0,0)" fill="#ffffff" class="undefined-text-0" data-fill-palette-color="quaternary" id="text-0"/></svg></g></svg></g><g transform="matrix(1,0,0,1,0,90.93372592398681)"><svg viewBox="0 0 103.82208633629865 20.484079592618208" height="20.484079592618208" width="103.82208633629865"><g transform="matrix(1,0,0,1,0,0)"><svg width="103.82208633629865" viewBox="0.2199999988079071 -36.040000915527344 182.6300048828125 36.040000915527344" height="20.484079592618208" data-palette-color="#ffffff"><path d="M25.49 0L24.12-3.54 13.53-3.54 15.77-9.96 21.63-9.96 12.96-32.4 23.49-32.4 36.4 0 25.49 0ZM16.58-18.07L10.64 0 0.22 0 11.79-30.93 16.58-18.07ZM54.78-6.47L54.78 0 45.21 0 39.16-6.05 39.16-35.82 49.95-35.82 49.95-6.47 54.78-6.47ZM68.72 0L57.91 0 57.91-25.93 68.72-25.93 68.72 0ZM74.82 0L74.82-19.46 70.43-19.46 70.43-22.51 73.82-25.93 82.17-25.93 85.64-22.46 85.64 0 74.82 0ZM91.74 0L91.74-19.46 87.35-19.46 87.35-22.46 90.67-25.93 97.26-25.93 102.53-20.61 102.53 0 91.74 0ZM135.05 0L124.5 0 124.5-19.46 109.15-19.46 109.15-22.68 112.39-25.93 128.58-25.93 135.05-19.46 135.05 0ZM111.32-15.09L122.8-15.09 122.8-10.6 117.23-10.6 117.23-6.05 122.8-6.05 122.8-3.2 119.57 0 111.32 0 106.97-4.27 106.97-10.77 111.32-15.09ZM139.71-20.12L145.55-25.93 149.87-25.93 149.87-16.77 162.17-16.77 167.79-11.11 167.79-6.05 161.76 0 157 0 157-9.79 145.33-9.79 139.71-15.19 139.71-20.12ZM150.5-7.42L150.5-4.76 155.29-4.76 155.29 0 144.18-0.02 139.69-5.35 139.69-7.42 150.5-7.42ZM157-19.14L157-21.17 151.58-21.17 151.58-25.93 163.05-25.93 166.91-22.07 166.91-19.14 157-19.14ZM172.03 0L172.03-25.93 182.85-25.93 182.85 0 172.03 0ZM172.03-29.15L172.03-36.04 182.85-36.04 182.85-29.15 172.03-29.15Z" opacity="1" transform="matrix(1,0,0,1,0,0)" fill="#ffffff" class="undefined-text-1" data-fill-palette-color="quaternary" id="text-1"/></svg></g></svg></g></svg></g></svg></g><g/></svg></g></svg></g><g><path d="M160.691 45.598A68.631 68.631 0 0 1 234.829 45.598L232.7 45.598A66.502 66.502 0 0 0 162.82 45.598L160.691 45.598M160.691 201.602A68.631 68.631 0 0 0 234.829 201.602L232.7 201.602A66.502 66.502 0 0 1 162.82 201.602L160.691 201.602" fill="#111111" stroke="transparent" data-fill-palette-color="tertiary"/></g></svg></g><defs/></svg><rect width="395.52" height="247.2" fill="none" stroke="none" visibility="hidden"/></g></svg></g></svg>